<?xml version="1.0" encoding="UTF-8" standalone="no"?>
<svg
   xmlns:dc="http://purl.org/dc/elements/1.1/"
   xmlns:cc="http://creativecommons.org/ns#"
   xmlns:rdf="http://www.w3.org/1999/02/22-rdf-syntax-ns#"
   xmlns:svg="http://www.w3.org/2000/svg"
   xmlns="http://www.w3.org/2000/svg"
   viewBox="0 0 432 144"
   height="144"
   width="432"
   xml:space="preserve"
   id="svg2"
   version="1.1"><metadata
     id="metadata8"><rdf:RDF><cc:Work
         rdf:about=""><dc:format>image/svg+xml</dc:format><dc:type
           rdf:resource="http://purl.org/dc/dcmitype/StillImage" /></cc:Work></rdf:RDF></metadata><defs
     id="defs6"><clipPath
       id="clipPath18"
       clipPathUnits="userSpaceOnUse"><path
         id="path16"
         d="M 0,108 H 324 V 0 H 0 Z" /></clipPath><clipPath
       id="clipPath54"
       clipPathUnits="userSpaceOnUse"><path
         id="path52"
         d="m 44.755,70.967 c -0.687,-0.686 -1.362,-1.369 -2.035,-2.05 v 0 c 3.959,-3.552 8.128,-7.469 12.385,-11.657 v 0 c 0.556,0.561 1.114,1.124 1.678,1.689 v 0 c 7.419,7.419 14.638,14.07 21.035,19.482 v 0 L 65.797,90.453 C 59.398,85.042 52.177,78.389 44.755,70.967" /></clipPath><linearGradient
       id="linearGradient66"
       spreadMethod="pad"
       gradientTransform="matrix(0,33.192669,33.192669,0,60.269451,57.259998)"
       gradientUnits="userSpaceOnUse"
       y2="0"
       x2="1"
       y1="0"
       x1="0"><stop
         id="stop60"
         offset="0"
         style="stop-opacity:1;stop-color:#ee9021" /><stop
         id="stop62"
         offset="0.486799"
         style="stop-opacity:1;stop-color:#dd7f31" /><stop
         id="stop64"
         offset="1"
         style="stop-opacity:1;stop-color:#dd7f31" /></linearGradient><clipPath
       id="clipPath76"
       clipPathUnits="userSpaceOnUse"><path
         id="path74"
         d="M 0,108 H 324 V 0 H 0 Z" /></clipPath><clipPath
       id="clipPath96"
       clipPathUnits="userSpaceOnUse"><path
         id="path94"
         d="M 60.854,54.868 C 53.51,47.524 46.92,40.376 41.54,34.027 v 0 L 53.562,22.006 c 5.383,6.349 11.975,13.498 19.32,20.844 v 0 c 0.691,0.691 1.381,1.372 2.067,2.05 v 0 c -3.568,3.959 -7.492,8.117 -11.683,12.359 v 0 c -0.801,-0.788 -1.605,-1.584 -2.412,-2.391" /></clipPath><linearGradient
       id="linearGradient108"
       spreadMethod="pad"
       gradientTransform="matrix(0,-35.253506,-35.253506,0,58.24498,57.258961)"
       gradientUnits="userSpaceOnUse"
       y2="0"
       x2="1"
       y1="0"
       x1="0"><stop
         id="stop102"
         offset="0"
         style="stop-opacity:1;stop-color:#ee9021" /><stop
         id="stop104"
         offset="0.486799"
         style="stop-opacity:1;stop-color:#dd7f31" /><stop
         id="stop106"
         offset="1"
         style="stop-opacity:1;stop-color:#dd7f31" /></linearGradient><clipPath
       id="clipPath118"
       clipPathUnits="userSpaceOnUse"><path
         id="path116"
         d="M 0,108 H 324 V 0 H 0 Z" /></clipPath></defs><g
     transform="matrix(1.3333333,0,0,-1.3333333,0,144)"
     id="g10"><g
       id="g12"><g
         clip-path="url(#clipPath18)"
         id="g14"><g
           transform="translate(31.2905,56.7856)"
           id="g20"><path
             id="path22"
             style="fill:#dd7f31;fill-opacity:1;fill-rule:nonzero;stroke:none"
             d="M 0,0 C -1.993,-2.215 -4.098,-4.592 -5.85,-6.659 L 6.172,-18.681 C 8.02,-16.5 10.238,-14 12.353,-11.657 8.11,-7.473 3.954,-3.558 0,0" /></g><g
           transform="translate(59.4141,84.4863)"
           id="g24"><path
             id="path26"
             style="fill:#2a6480;fill-opacity:1;fill-rule:nonzero;stroke:none"
             d="M 0,0 C -2.234,2.01 -4.629,4.132 -6.712,5.898 L -18.734,-6.125 c 1.968,-1.668 4.237,-3.677 6.341,-5.564 C -8.136,-7.492 -3.966,-3.566 0,0" /></g><g
           transform="translate(73.5415,71.0703)"
           id="g28"><path
             id="path30"
             style="fill:#2a6480;fill-opacity:1;fill-rule:nonzero;stroke:none"
             d="m 0,0 c -0.656,0.656 -1.534,1.528 -2.187,2.172 -3.961,-3.551 -8.132,-7.469 -12.393,-11.659 0.777,-0.764 1.78,-1.76 2.562,-2.541 7.419,-7.419 14.07,-14.638 19.483,-21.036 l 12.021,12.021 C 14.075,-14.644 7.422,-7.422 0,0" /></g><g
           transform="translate(59.4092,52.9922)"
           id="g32"><path
             id="path34"
             style="fill:#0082a4;fill-opacity:1;fill-rule:nonzero;stroke:none"
             d="m 0,0 c -0.577,0.583 -1.38,1.392 -1.967,1.979 -7.344,7.344 -14.491,13.934 -20.84,19.313 L -34.829,9.271 c 6.35,-5.383 13.498,-11.975 20.844,-19.321 0.698,-0.697 1.611,-1.617 2.295,-2.311 C -8.118,-8.4 -4.192,-4.242 0,0" /></g><g
           transform="translate(70.6484,41.0762)"
           id="g36"><path
             id="path38"
             style="fill:#0082a4;fill-opacity:1;fill-rule:nonzero;stroke:none"
             d="m 0,0 c -4.197,-4.256 -8.124,-8.426 -11.69,-12.391 2.03,-2.258 4.169,-4.675 5.948,-6.778 L 6.28,-7.148 C 4.405,-4.931 2.153,-2.389 0,0" /></g><g
           transform="translate(59.4092,52.9922)"
           id="g40"><path
             id="path42"
             style="fill:#2a6480;fill-opacity:1;fill-rule:nonzero;stroke:none"
             d="m 0,0 c -0.577,0.583 -1.38,1.392 -1.967,1.979 -7.344,7.344 -14.491,13.934 -20.84,19.313 L -34.829,9.271 c 6.35,-5.383 13.498,-11.975 20.844,-19.321 0.698,-0.697 1.611,-1.617 2.295,-2.311 C -8.118,-8.4 -4.192,-4.242 0,0" /></g><g
           transform="translate(70.6484,41.0762)"
           id="g44"><path
             id="path46"
             style="fill:#2a6480;fill-opacity:1;fill-rule:nonzero;stroke:none"
             d="m 0,0 c -4.197,-4.256 -8.124,-8.426 -11.69,-12.391 2.03,-2.258 4.169,-4.675 5.948,-6.778 L 6.28,-7.148 C 4.405,-4.931 2.153,-2.389 0,0" /></g></g></g><g
       id="g48"><g
         clip-path="url(#clipPath54)"
         id="g50"><g
           id="g56"><g
             id="g58"><path
               id="path68"
               style="fill:url(#linearGradient66);stroke:none"
               d="m 44.755,70.967 c -0.687,-0.686 -1.362,-1.369 -2.035,-2.05 v 0 c 3.959,-3.552 8.128,-7.469 12.385,-11.657 v 0 c 0.556,0.561 1.114,1.124 1.678,1.689 v 0 c 7.419,7.419 14.638,14.07 21.035,19.482 v 0 L 65.797,90.453 C 59.398,85.042 52.177,78.389 44.755,70.967" /></g></g></g></g><g
       id="g70"><g
         clip-path="url(#clipPath76)"
         id="g72"><g
           transform="translate(87.3047,56.5542)"
           id="g78"><path
             id="path80"
             style="fill:#209ad6;fill-opacity:1;fill-rule:nonzero;stroke:none"
             d="M 0,0 C 2.279,2.05 4.492,3.983 6.613,5.778 L -5.408,17.799 C -7.414,16.103 -9.501,14.284 -11.65,12.358 -7.467,8.113 -3.554,3.954 0,0" /></g><g
           transform="translate(74.9497,44.9004)"
           id="g82"><path
             id="path84"
             style="fill:#209ad6;fill-opacity:1;fill-rule:nonzero;stroke:none"
             d="M 0,0 C -3.569,3.959 -7.493,8.117 -11.683,12.358 -12.484,11.57 -13.289,10.774 -14.096,9.967 -21.44,2.623 -28.03,-4.524 -33.41,-10.873 l 12.022,-12.022 c 5.384,6.35 11.975,13.499 19.32,20.844 C -1.376,-1.359 -0.687,-0.678 0,0" /></g><g
           transform="translate(87.3047,56.5542)"
           id="g86"><path
             id="path88"
             style="fill:#dd7f31;fill-opacity:1;fill-rule:nonzero;stroke:none"
             d="M 0,0 C 2.279,2.05 4.492,3.983 6.613,5.778 L -5.408,17.799 C -7.414,16.103 -9.501,14.284 -11.65,12.358 -7.467,8.113 -3.554,3.954 0,0" /></g></g></g><g
       id="g90"><g
         clip-path="url(#clipPath96)"
         id="g92"><g
           id="g98"><g
             id="g100"><path
               id="path110"
               style="fill:url(#linearGradient108);stroke:none"
               d="M 60.854,54.868 C 53.51,47.524 46.92,40.376 41.54,34.027 v 0 L 53.562,22.006 c 5.383,6.349 11.975,13.498 19.32,20.844 v 0 c 0.691,0.691 1.381,1.372 2.067,2.05 v 0 c -3.568,3.959 -7.492,8.117 -11.683,12.359 v 0 c -0.801,-0.788 -1.605,-1.584 -2.412,-2.391" /></g></g></g></g><g
       id="g112"><g
         clip-path="url(#clipPath118)"
         id="g114"><g
           transform="translate(111.3491,59.8657)"
           id="g120"><path
             id="path122"
             style="fill:#ffffff;fill-opacity:1;fill-rule:nonzero;stroke:none"
             d="m 0,0 c -1.716,0.912 -3.064,2.182 -4.045,3.81 -0.981,1.627 -1.471,3.471 -1.471,5.53 0,2.059 0.49,3.903 1.471,5.531 0.981,1.627 2.329,2.897 4.045,3.809 1.716,0.912 3.652,1.368 5.81,1.368 1.882,0 3.579,-0.334 5.089,-1 1.51,-0.667 2.766,-1.628 3.766,-2.883 L 10.958,12.812 C 9.624,14.419 8.006,15.224 6.104,15.224 4.986,15.224 3.991,14.978 3.118,14.488 2.245,13.998 1.569,13.306 1.088,12.414 0.607,11.521 0.368,10.497 0.368,9.34 0.368,8.183 0.607,7.158 1.088,6.266 1.569,5.374 2.245,4.682 3.118,4.192 3.991,3.702 4.986,3.457 6.104,3.457 c 1.902,0 3.52,0.804 4.854,2.412 l 3.707,-3.354 c -1,-1.255 -2.256,-2.216 -3.766,-2.883 -1.51,-0.666 -3.207,-1 -5.089,-1 C 3.652,-1.368 1.716,-0.912 0,0" /></g><g
           transform="translate(141.811,64.0576)"
           id="g124"><path
             id="path126"
             style="fill:#ffffff;fill-opacity:1;fill-rule:nonzero;stroke:none"
             d="M 0,0 C 0.842,0.49 1.51,1.182 2,2.074 2.49,2.966 2.736,3.991 2.736,5.148 2.736,6.305 2.49,7.33 2,8.222 1.51,9.114 0.842,9.806 0,10.296 c -0.844,0.49 -1.785,0.736 -2.824,0.736 -1.039,0 -1.982,-0.246 -2.824,-0.736 C -6.492,9.806 -7.159,9.114 -7.649,8.222 -8.139,7.33 -8.384,6.305 -8.384,5.148 c 0,-1.157 0.245,-2.182 0.735,-3.074 0.49,-0.892 1.157,-1.584 2.001,-2.074 0.842,-0.49 1.785,-0.735 2.824,-0.735 1.039,0 1.98,0.245 2.824,0.735 m -8.693,-4.177 c -1.736,0.922 -3.099,2.196 -4.089,3.824 -0.991,1.628 -1.486,3.461 -1.486,5.501 0,2.039 0.495,3.873 1.486,5.501 0.99,1.628 2.353,2.902 4.089,3.825 1.735,0.921 3.692,1.382 5.869,1.382 2.176,0 4.133,-0.461 5.869,-1.382 C 4.779,13.551 6.143,12.277 7.133,10.649 8.123,9.021 8.619,7.187 8.619,5.148 8.619,3.108 8.123,1.275 7.133,-0.353 6.143,-1.981 4.779,-3.255 3.045,-4.177 1.309,-5.099 -0.648,-5.56 -2.824,-5.56 c -2.177,0 -4.134,0.461 -5.869,1.383" /></g><g
           transform="translate(172.0811,58.9097)"
           id="g128"><path
             id="path130"
             style="fill:#ffffff;fill-opacity:1;fill-rule:nonzero;stroke:none"
             d="M 0,0 -0.06,10.914 -5.354,2.03 h -2.589 l -5.265,8.59 V 0 h -5.383 v 20.592 h 4.795 L -6.561,8.708 0.5,20.592 H 5.295 L 5.354,0 Z" /></g><g
           transform="translate(200.1455,58.9097)"
           id="g132"><path
             id="path134"
             style="fill:#ffffff;fill-opacity:1;fill-rule:nonzero;stroke:none"
             d="M 0,0 -0.06,10.914 -5.354,2.03 h -2.589 l -5.266,8.59 V 0 h -5.383 v 20.592 h 4.795 L -6.561,8.708 0.5,20.592 H 5.295 L 5.354,0 Z" /></g><g
           transform="translate(211.9863,60.9985)"
           id="g136"><path
             id="path138"
             style="fill:#ffffff;fill-opacity:1;fill-rule:nonzero;stroke:none"
             d="M 0,0 C -1.697,1.667 -2.545,4.03 -2.545,7.089 V 18.503 H 3.279 V 7.266 c 0,-3.295 1.305,-4.942 3.913,-4.942 2.589,0 3.883,1.647 3.883,4.942 v 11.237 h 5.737 V 7.089 C 16.812,4.03 15.963,1.667 14.268,0 12.57,-1.667 10.192,-2.5 7.134,-2.5 4.074,-2.5 1.695,-1.667 0,0" /></g><g
           transform="translate(252.332,79.502)"
           id="g140"><path
             id="path142"
             style="fill:#ffffff;fill-opacity:1;fill-rule:nonzero;stroke:none"
             d="m 0,0 v -20.592 h -4.795 l -9.09,10.972 v -10.972 h -5.707 V 0 h 4.795 l 9.09,-10.973 0,10.973 z" /></g><path
           id="path144"
           style="fill:#ffffff;fill-opacity:1;fill-rule:nonzero;stroke:none"
           d="m 256.451,79.502 h 5.824 V 58.91 h -5.824 z" /><g
           transform="translate(270.8066,74.8833)"
           id="g146"><path
             id="path148"
             style="fill:#ffffff;fill-opacity:1;fill-rule:nonzero;stroke:none"
             d="M 0,0 H -6.325 V 4.619 H 12.12 V 0 H 5.825 V -15.974 H 0 Z" /></g><g
           transform="translate(297.0176,66.2935)"
           id="g150"><path
             id="path152"
             style="fill:#ffffff;fill-opacity:1;fill-rule:nonzero;stroke:none"
             d="m 0,0 v -7.384 h -5.824 v 7.472 l -7.855,13.12 h 6.148 l 4.884,-8.178 4.882,8.178 h 5.649 z" /></g><path
           id="path154"
           style="fill:#ffffff;fill-opacity:1;fill-rule:nonzero;stroke:none"
           d="m 106.892,53.669 h 5.825 V 33.077 h -5.825 z" /><g
           transform="translate(135.4561,33.0771)"
           id="g156"><path
             id="path158"
             style="fill:#ffffff;fill-opacity:1;fill-rule:nonzero;stroke:none"
             d="M 0,0 -0.059,10.914 -5.354,2.03 h -2.588 l -5.266,8.59 V 0 h -5.384 v 20.592 h 4.796 L -6.56,8.708 0.5,20.592 H 5.295 L 5.354,0 Z" /></g><g
           transform="translate(156.6958,43.8291)"
           id="g160"><path
             id="path162"
             style="fill:#ffffff;fill-opacity:1;fill-rule:nonzero;stroke:none"
             d="M 0,0 C 0.607,0.52 0.912,1.261 0.912,2.222 0.912,3.182 0.607,3.927 0,4.457 -0.608,4.986 -1.511,5.251 -2.706,5.251 h -3.236 v -6.03 h 3.236 C -1.511,-0.779 -0.608,-0.52 0,0 M 2.501,8.913 C 3.873,8.296 4.931,7.413 5.677,6.267 6.422,5.118 6.795,3.771 6.795,2.222 6.795,0.672 6.422,-0.672 5.677,-1.81 4.931,-2.946 3.873,-3.824 2.501,-4.442 1.128,-5.06 -0.49,-5.368 -2.354,-5.368 h -3.588 v -5.384 h -5.825 V 9.84 h 9.413 c 1.864,0 3.482,-0.309 4.855,-0.927" /></g><g
           transform="translate(176.6396,41.373)"
           id="g164"><path
             id="path166"
             style="fill:#ffffff;fill-opacity:1;fill-rule:nonzero;stroke:none"
             d="M 0,0 -2.647,6.59 -5.295,0 Z m 1.707,-4.295 h -8.708 l -1.618,-4.001 h -5.943 l 9.09,20.592 H 0.266 L 9.385,-8.296 H 3.324 Z" /></g><g
           transform="translate(191.2461,34.0332)"
           id="g168"><path
             id="path170"
             style="fill:#ffffff;fill-opacity:1;fill-rule:nonzero;stroke:none"
             d="m 0,0 c -1.716,0.912 -3.064,2.182 -4.045,3.81 -0.98,1.627 -1.471,3.471 -1.471,5.53 0,2.059 0.491,3.902 1.471,5.531 0.981,1.627 2.329,2.897 4.045,3.809 1.716,0.912 3.652,1.368 5.811,1.368 1.882,0 3.578,-0.334 5.088,-1 1.51,-0.667 2.766,-1.628 3.766,-2.883 L 10.958,12.812 C 9.624,14.42 8.007,15.224 6.104,15.224 4.986,15.224 3.991,14.979 3.118,14.488 2.246,13.998 1.569,13.307 1.089,12.414 0.608,11.521 0.368,10.497 0.368,9.34 0.368,8.183 0.608,7.158 1.089,6.266 1.569,5.373 2.246,4.682 3.118,4.191 3.991,3.701 4.986,3.457 6.104,3.457 c 1.903,0 3.52,0.804 4.854,2.412 l 3.707,-3.353 c -1,-1.256 -2.256,-2.217 -3.766,-2.883 -1.51,-0.667 -3.206,-1 -5.088,-1 C 3.652,-1.367 1.716,-0.912 0,0" /></g><g
           transform="translate(213.7646,49.0508)"
           id="g172"><path
             id="path174"
             style="fill:#ffffff;fill-opacity:1;fill-rule:nonzero;stroke:none"
             d="M 0,0 H -6.325 V 4.619 H 12.12 V 0 H 5.825 V -15.974 H 0 Z" /></g><g
           transform="translate(111.3491,59.8657)"
           id="g176"><path
             id="path178"
             style="fill:#ffffff;fill-opacity:1;fill-rule:nonzero;stroke:none"
             d="m 0,0 c -1.716,0.912 -3.064,2.182 -4.045,3.81 -0.981,1.627 -1.471,3.471 -1.471,5.53 0,2.059 0.49,3.903 1.471,5.531 0.981,1.627 2.329,2.897 4.045,3.809 1.716,0.912 3.652,1.368 5.81,1.368 1.882,0 3.579,-0.334 5.089,-1 1.51,-0.667 2.766,-1.628 3.766,-2.883 L 10.958,12.812 C 9.624,14.419 8.006,15.224 6.104,15.224 4.986,15.224 3.991,14.978 3.118,14.488 2.245,13.998 1.569,13.306 1.088,12.414 0.607,11.521 0.368,10.497 0.368,9.34 0.368,8.183 0.607,7.158 1.088,6.266 1.569,5.374 2.245,4.682 3.118,4.192 3.991,3.702 4.986,3.457 6.104,3.457 c 1.902,0 3.52,0.804 4.854,2.412 l 3.707,-3.354 c -1,-1.255 -2.256,-2.216 -3.766,-2.883 -1.51,-0.666 -3.207,-1 -5.089,-1 C 3.652,-1.368 1.716,-0.912 0,0" /></g><g
           transform="translate(141.811,64.0576)"
           id="g180"><path
             id="path182"
             style="fill:#ffffff;fill-opacity:1;fill-rule:nonzero;stroke:none"
             d="M 0,0 C 0.842,0.49 1.51,1.182 2,2.074 2.49,2.966 2.736,3.991 2.736,5.148 2.736,6.305 2.49,7.33 2,8.222 1.51,9.114 0.842,9.806 0,10.296 c -0.844,0.49 -1.785,0.736 -2.824,0.736 -1.039,0 -1.982,-0.246 -2.824,-0.736 C -6.492,9.806 -7.159,9.114 -7.649,8.222 -8.139,7.33 -8.384,6.305 -8.384,5.148 c 0,-1.157 0.245,-2.182 0.735,-3.074 0.49,-0.892 1.157,-1.584 2.001,-2.074 0.842,-0.49 1.785,-0.735 2.824,-0.735 1.039,0 1.98,0.245 2.824,0.735 m -8.693,-4.177 c -1.736,0.922 -3.099,2.196 -4.089,3.824 -0.991,1.628 -1.486,3.461 -1.486,5.501 0,2.039 0.495,3.873 1.486,5.501 0.99,1.628 2.353,2.902 4.089,3.825 1.735,0.921 3.692,1.382 5.869,1.382 2.176,0 4.133,-0.461 5.869,-1.382 C 4.779,13.551 6.143,12.277 7.133,10.649 8.123,9.021 8.619,7.187 8.619,5.148 8.619,3.108 8.123,1.275 7.133,-0.353 6.143,-1.981 4.779,-3.255 3.045,-4.177 1.309,-5.099 -0.648,-5.56 -2.824,-5.56 c -2.177,0 -4.134,0.461 -5.869,1.383" /></g><g
           transform="translate(172.0811,58.9097)"
           id="g184"><path
             id="path186"
             style="fill:#ffffff;fill-opacity:1;fill-rule:nonzero;stroke:none"
             d="M 0,0 -0.06,10.914 -5.354,2.03 h -2.589 l -5.265,8.59 V 0 h -5.383 v 20.592 h 4.795 L -6.561,8.708 0.5,20.592 H 5.295 L 5.354,0 Z" /></g><g
           transform="translate(200.1455,58.9097)"
           id="g188"><path
             id="path190"
             style="fill:#ffffff;fill-opacity:1;fill-rule:nonzero;stroke:none"
             d="M 0,0 -0.06,10.914 -5.354,2.03 h -2.589 l -5.266,8.59 V 0 h -5.383 v 20.592 h 4.795 L -6.561,8.708 0.5,20.592 H 5.295 L 5.354,0 Z" /></g><g
           transform="translate(211.9863,60.9985)"
           id="g192"><path
             id="path194"
             style="fill:#ffffff;fill-opacity:1;fill-rule:nonzero;stroke:none"
             d="M 0,0 C -1.697,1.667 -2.545,4.03 -2.545,7.089 V 18.503 H 3.279 V 7.266 c 0,-3.295 1.305,-4.942 3.913,-4.942 2.589,0 3.883,1.647 3.883,4.942 v 11.237 h 5.737 V 7.089 C 16.812,4.03 15.963,1.667 14.268,0 12.57,-1.667 10.192,-2.5 7.134,-2.5 4.074,-2.5 1.695,-1.667 0,0" /></g><g
           transform="translate(252.332,79.502)"
           id="g196"><path
             id="path198"
             style="fill:#ffffff;fill-opacity:1;fill-rule:nonzero;stroke:none"
             d="m 0,0 v -20.592 h -4.795 l -9.09,10.972 v -10.972 h -5.707 V 0 h 4.795 l 9.09,-10.973 0,10.973 z" /></g><path
           id="path200"
           style="fill:#ffffff;fill-opacity:1;fill-rule:nonzero;stroke:none"
           d="m 256.451,79.502 h 5.824 V 58.91 h -5.824 z" /><g
           transform="translate(270.8066,74.8833)"
           id="g202"><path
             id="path204"
             style="fill:#ffffff;fill-opacity:1;fill-rule:nonzero;stroke:none"
             d="M 0,0 H -6.325 V 4.619 H 12.12 V 0 H 5.825 V -15.974 H 0 Z" /></g><g
           transform="translate(297.0176,66.2935)"
           id="g206"><path
             id="path208"
             style="fill:#ffffff;fill-opacity:1;fill-rule:nonzero;stroke:none"
             d="m 0,0 v -7.384 h -5.824 v 7.472 l -7.855,13.12 h 6.148 l 4.884,-8.178 4.882,8.178 h 5.649 z" /></g><path
           id="path210"
           style="fill:#ffffff;fill-opacity:1;fill-rule:nonzero;stroke:none"
           d="m 106.892,53.669 h 5.825 V 33.077 h -5.825 z" /><g
           transform="translate(135.4561,33.0771)"
           id="g212"><path
             id="path214"
             style="fill:#ffffff;fill-opacity:1;fill-rule:nonzero;stroke:none"
             d="M 0,0 -0.059,10.914 -5.354,2.03 h -2.588 l -5.266,8.59 V 0 h -5.384 v 20.592 h 4.796 L -6.56,8.708 0.5,20.592 H 5.295 L 5.354,0 Z" /></g><g
           transform="translate(156.6958,43.8291)"
           id="g216"><path
             id="path218"
             style="fill:#ffffff;fill-opacity:1;fill-rule:nonzero;stroke:none"
             d="M 0,0 C 0.607,0.52 0.912,1.261 0.912,2.222 0.912,3.182 0.607,3.927 0,4.457 -0.608,4.986 -1.511,5.251 -2.706,5.251 h -3.236 v -6.03 h 3.236 C -1.511,-0.779 -0.608,-0.52 0,0 M 2.501,8.913 C 3.873,8.296 4.931,7.413 5.677,6.267 6.422,5.118 6.795,3.771 6.795,2.222 6.795,0.672 6.422,-0.672 5.677,-1.81 4.931,-2.946 3.873,-3.824 2.501,-4.442 1.128,-5.06 -0.49,-5.368 -2.354,-5.368 h -3.588 v -5.384 h -5.825 V 9.84 h 9.413 c 1.864,0 3.482,-0.309 4.855,-0.927" /></g><g
           transform="translate(176.6396,41.373)"
           id="g220"><path
             id="path222"
             style="fill:#ffffff;fill-opacity:1;fill-rule:nonzero;stroke:none"
             d="M 0,0 -2.647,6.59 -5.295,0 Z m 1.707,-4.295 h -8.708 l -1.618,-4.001 h -5.943 l 9.09,20.592 H 0.266 L 9.385,-8.296 H 3.324 Z" /></g><g
           transform="translate(191.2461,34.0332)"
           id="g224"><path
             id="path226"
             style="fill:#ffffff;fill-opacity:1;fill-rule:nonzero;stroke:none"
             d="m 0,0 c -1.716,0.912 -3.064,2.182 -4.045,3.81 -0.98,1.627 -1.471,3.471 -1.471,5.53 0,2.059 0.491,3.902 1.471,5.531 0.981,1.627 2.329,2.897 4.045,3.809 1.716,0.912 3.652,1.368 5.811,1.368 1.882,0 3.578,-0.334 5.088,-1 1.51,-0.667 2.766,-1.628 3.766,-2.883 L 10.958,12.812 C 9.624,14.42 8.007,15.224 6.104,15.224 4.986,15.224 3.991,14.979 3.118,14.488 2.246,13.998 1.569,13.307 1.089,12.414 0.608,11.521 0.368,10.497 0.368,9.34 0.368,8.183 0.608,7.158 1.089,6.266 1.569,5.373 2.246,4.682 3.118,4.191 3.991,3.701 4.986,3.457 6.104,3.457 c 1.903,0 3.52,0.804 4.854,2.412 l 3.707,-3.353 c -1,-1.256 -2.256,-2.217 -3.766,-2.883 -1.51,-0.667 -3.206,-1 -5.088,-1 C 3.652,-1.367 1.716,-0.912 0,0" /></g><g
           transform="translate(213.7646,49.0508)"
           id="g228"><path
             id="path230"
             style="fill:#ffffff;fill-opacity:1;fill-rule:nonzero;stroke:none"
             d="M 0,0 H -6.325 V 4.619 H 12.12 V 0 H 5.825 V -15.974 H 0 Z" /></g><g
           transform="translate(240.3271,48.3398)"
           id="g232"><path
             id="path234"
             style="fill:#32b1b6;fill-opacity:1;fill-rule:nonzero;stroke:none"
             d="m 0,0 c 0.253,0.227 0.38,0.587 0.38,1.08 0,0.492 -0.131,0.83 -0.393,1.014 -0.261,0.183 -0.719,0.275 -1.374,0.275 H -2.918 V -0.34 h 1.491 c 0.698,0 1.174,0.113 1.427,0.34 m 2.46,1.086 c 0,-1.465 -0.58,-2.412 -1.74,-2.84 L 3.036,-5.025 H 0.523 l -2.028,2.918 H -2.918 V -5.025 H -4.96 v 9.147 h 3.468 c 1.422,0 2.436,-0.239 3.043,-0.72 C 2.157,2.922 2.46,2.15 2.46,1.086" /></g><g
           transform="translate(251.4766,52.4619)"
           id="g236"><path
             id="path238"
             style="fill:#32b1b6;fill-opacity:1;fill-rule:nonzero;stroke:none"
             d="m 0,0 v -1.819 h -4.554 v -1.884 h 4.096 v -1.741 h -4.096 v -1.897 h 4.698 v -1.806 h -6.74 V 0 Z" /></g><g
           transform="translate(257.4561,49.7402)"
           id="g240"><path
             id="path242"
             style="fill:#32b1b6;fill-opacity:1;fill-rule:nonzero;stroke:none"
             d="m 0,0 -1.151,-2.656 h 2.29 z m 2.762,-6.426 -0.851,1.977 h -3.835 l -0.85,-1.977 h -2.172 l 3.952,9.148 h 1.975 l 3.953,-9.148 z" /></g><g
           transform="translate(263.4492,43.3145)"
           id="g244"><path
             id="path246"
             style="fill:#32b1b6;fill-opacity:1;fill-rule:nonzero;stroke:none"
             d="M 0,0 V 9.147 H 2.042 V 1.819 H 5.941 V 0 Z" /></g><g
           transform="translate(241.9629,41.0723)"
           id="g248"><path
             id="path250"
             style="fill:#32b1b6;fill-opacity:1;fill-rule:nonzero;stroke:none"
             d="m 0,0 v -1.818 h -4.554 v -1.885 h 4.096 v -1.74 h -4.096 v -1.899 h 4.698 v -1.804 h -6.74 V 0 Z" /></g><g
           transform="translate(246.0645,39.2471)"
           id="g252"><path
             id="path254"
             style="fill:#32b1b6;fill-opacity:1;fill-rule:nonzero;stroke:none"
             d="m 0,0 c -0.196,-0.161 -0.294,-0.376 -0.294,-0.642 0,-0.265 0.119,-0.477 0.359,-0.634 0.241,-0.157 0.794,-0.342 1.663,-0.556 0.868,-0.214 1.542,-0.534 2.021,-0.962 0.48,-0.428 0.72,-1.051 0.72,-1.871 0,-0.82 -0.307,-1.485 -0.922,-1.996 -0.615,-0.51 -1.425,-0.766 -2.428,-0.766 -1.448,0 -2.753,0.537 -3.913,1.61 l 1.218,1.492 c 0.985,-0.863 1.897,-1.295 2.734,-1.295 0.375,0 0.67,0.08 0.884,0.242 0.214,0.16 0.32,0.379 0.32,0.654 0,0.275 -0.113,0.493 -0.34,0.655 -0.227,0.16 -0.676,0.324 -1.348,0.49 -1.065,0.253 -1.843,0.582 -2.335,0.988 -0.493,0.405 -0.74,1.042 -0.74,1.91 0,0.868 0.312,1.537 0.936,2.009 0.623,0.472 1.402,0.706 2.335,0.706 0.611,0 1.222,-0.103 1.832,-0.313 0.611,-0.21 1.144,-0.507 1.597,-0.89 L 3.266,-0.661 C 2.472,-0.06 1.651,0.241 0.805,0.241 0.465,0.241 0.196,0.161 0,0" /></g><g
           transform="translate(256.1475,39.3057)"
           id="g256"><path
             id="path258"
             style="fill:#32b1b6;fill-opacity:1;fill-rule:nonzero;stroke:none"
             d="M 0,0 V -7.38 H -2.042 V 0 H -4.633 V 1.767 H 2.591 V 0 Z" /></g><g
           transform="translate(263.0703,38.3506)"
           id="g260"><path
             id="path262"
             style="fill:#32b1b6;fill-opacity:1;fill-rule:nonzero;stroke:none"
             d="m 0,0 -1.151,-2.657 h 2.29 z m 2.762,-6.425 -0.851,1.976 h -3.835 l -0.85,-1.976 h -2.172 l 3.952,9.147 h 1.975 l 3.953,-9.147 z" /></g><g
           transform="translate(272.2822,39.3057)"
           id="g264"><path
             id="path266"
             style="fill:#32b1b6;fill-opacity:1;fill-rule:nonzero;stroke:none"
             d="M 0,0 V -7.38 H -2.042 V 0 H -4.633 V 1.767 H 2.591 V 0 Z" /></g><g
           transform="translate(282.96,41.0723)"
           id="g268"><path
             id="path270"
             style="fill:#32b1b6;fill-opacity:1;fill-rule:nonzero;stroke:none"
             d="m 0,0 v -1.818 h -4.554 v -1.885 h 4.096 v -1.74 h -4.096 v -1.899 h 4.698 v -1.804 h -6.74 V 0 Z" /></g><g
           transform="translate(240.3271,48.3398)"
           id="g272"><path
             id="path274"
             style="fill:#de8032;fill-opacity:1;fill-rule:nonzero;stroke:none"
             d="m 0,0 c 0.253,0.227 0.38,0.587 0.38,1.08 0,0.492 -0.131,0.83 -0.393,1.014 -0.261,0.183 -0.719,0.275 -1.374,0.275 H -2.918 V -0.34 h 1.491 c 0.698,0 1.174,0.113 1.427,0.34 m 2.46,1.086 c 0,-1.465 -0.58,-2.412 -1.74,-2.84 L 3.036,-5.025 H 0.523 l -2.028,2.918 H -2.918 V -5.025 H -4.96 v 9.147 h 3.468 c 1.422,0 2.436,-0.239 3.043,-0.72 C 2.157,2.922 2.46,2.15 2.46,1.086" /></g><g
           transform="translate(251.4766,52.4619)"
           id="g276"><path
             id="path278"
             style="fill:#de8032;fill-opacity:1;fill-rule:nonzero;stroke:none"
             d="m 0,0 v -1.819 h -4.554 v -1.884 h 4.096 v -1.741 h -4.096 v -1.897 h 4.698 v -1.806 h -6.74 V 0 Z" /></g><g
           transform="translate(257.4561,49.7402)"
           id="g280"><path
             id="path282"
             style="fill:#de8032;fill-opacity:1;fill-rule:nonzero;stroke:none"
             d="m 0,0 -1.151,-2.656 h 2.29 z m 2.762,-6.426 -0.851,1.977 h -3.835 l -0.85,-1.977 h -2.172 l 3.952,9.148 h 1.975 l 3.953,-9.148 z" /></g><g
           transform="translate(263.4492,43.3145)"
           id="g284"><path
             id="path286"
             style="fill:#de8032;fill-opacity:1;fill-rule:nonzero;stroke:none"
             d="M 0,0 V 9.147 H 2.042 V 1.819 H 5.941 V 0 Z" /></g><g
           transform="translate(241.9629,41.0723)"
           id="g288"><path
             id="path290"
             style="fill:#de8032;fill-opacity:1;fill-rule:nonzero;stroke:none"
             d="m 0,0 v -1.818 h -4.554 v -1.885 h 4.096 v -1.74 h -4.096 v -1.899 h 4.698 v -1.804 h -6.74 V 0 Z" /></g><g
           transform="translate(246.0645,39.2471)"
           id="g292"><path
             id="path294"
             style="fill:#de8032;fill-opacity:1;fill-rule:nonzero;stroke:none"
             d="m 0,0 c -0.196,-0.161 -0.294,-0.376 -0.294,-0.642 0,-0.265 0.119,-0.477 0.359,-0.634 0.241,-0.157 0.794,-0.342 1.663,-0.556 0.868,-0.214 1.542,-0.534 2.021,-0.962 0.48,-0.428 0.72,-1.051 0.72,-1.871 0,-0.82 -0.307,-1.485 -0.922,-1.996 -0.615,-0.51 -1.425,-0.766 -2.428,-0.766 -1.448,0 -2.753,0.537 -3.913,1.61 l 1.218,1.492 c 0.985,-0.863 1.897,-1.295 2.734,-1.295 0.375,0 0.67,0.08 0.884,0.242 0.214,0.16 0.32,0.379 0.32,0.654 0,0.275 -0.113,0.493 -0.34,0.655 -0.227,0.16 -0.676,0.324 -1.348,0.49 -1.065,0.253 -1.843,0.582 -2.335,0.988 -0.493,0.405 -0.74,1.042 -0.74,1.91 0,0.868 0.312,1.537 0.936,2.009 0.623,0.472 1.402,0.706 2.335,0.706 0.611,0 1.222,-0.103 1.832,-0.313 0.611,-0.21 1.144,-0.507 1.597,-0.89 L 3.266,-0.661 C 2.472,-0.06 1.651,0.241 0.805,0.241 0.465,0.241 0.196,0.161 0,0" /></g><g
           transform="translate(256.1475,39.3057)"
           id="g296"><path
             id="path298"
             style="fill:#de8032;fill-opacity:1;fill-rule:nonzero;stroke:none"
             d="M 0,0 V -7.38 H -2.042 V 0 H -4.633 V 1.767 H 2.591 V 0 Z" /></g><g
           transform="translate(263.0703,38.3506)"
           id="g300"><path
             id="path302"
             style="fill:#de8032;fill-opacity:1;fill-rule:nonzero;stroke:none"
             d="m 0,0 -1.151,-2.657 h 2.29 z m 2.762,-6.425 -0.851,1.976 h -3.835 l -0.85,-1.976 h -2.172 l 3.952,9.147 h 1.975 l 3.953,-9.147 z" /></g><g
           transform="translate(272.2822,39.3057)"
           id="g304"><path
             id="path306"
             style="fill:#de8032;fill-opacity:1;fill-rule:nonzero;stroke:none"
             d="M 0,0 V -7.38 H -2.042 V 0 H -4.633 V 1.767 H 2.591 V 0 Z" /></g><g
           transform="translate(282.96,41.0723)"
           id="g308"><path
             id="path310"
             style="fill:#de8032;fill-opacity:1;fill-rule:nonzero;stroke:none"
             d="m 0,0 v -1.818 h -4.554 v -1.885 h 4.096 v -1.74 h -4.096 v -1.899 h 4.698 v -1.804 h -6.74 V 0 Z" /></g></g></g></g></svg>